<svg width="27" height="27" viewBox="0 0 27 27" fill="none" xmlns="http://www.w3.org/2000/svg">
<path d="M3.375 7.875C3.375 5.75368 3.375 4.69302 4.03401 4.03401C4.69302 3.375 5.75368 3.375 7.875 3.375H19.125C21.2463 3.375 22.307 3.375 22.966 4.03401C23.625 4.69302 23.625 5.75368 23.625 7.875V19.125C23.625 21.2463 23.625 22.307 22.966 22.966C22.307 23.625 21.2463 23.625 19.125 23.625H7.875C5.75368 23.625 4.69302 23.625 4.03401 22.966C3.375 22.307 3.375 21.2463 3.375 19.125V7.875Z" stroke="white" stroke-width="2.25"/>
<path fill-rule="evenodd" clip-rule="evenodd" d="M20.25 11.25H14.239C13.3193 11.25 12.8594 11.25 12.4459 11.0787C12.0325 10.9075 11.7073 10.5823 11.057 9.93198L10.318 9.19302C9.6677 8.5427 9.34254 8.21754 8.92906 8.04627C8.51557 7.875 8.05573 7.875 7.13604 7.875H3.375V19.125C3.375 21.2463 3.375 22.307 4.03401 22.966C4.69302 23.625 5.75368 23.625 7.875 23.625H19.125C21.2463 23.625 22.307 23.625 22.966 22.966C23.625 22.307 23.625 21.2463 23.625 19.125V7.875C23.625 8.92337 23.625 9.44755 23.4537 9.86104C23.2254 10.4124 22.7874 10.8504 22.236 11.0787C21.8226 11.25 21.2984 11.25 20.25 11.25ZM7.87498 16.875C7.25366 16.875 6.74998 17.3787 6.74998 18C6.74998 18.6214 7.25366 19.125 7.87498 19.125H16.875C17.4963 19.125 18 18.6214 18 18C18 17.3787 17.4963 16.875 16.875 16.875H7.87498Z" fill="white"/>
</svg>
