<svg width="26" height="26" viewBox="0 0 26 26" fill="none" xmlns="http://www.w3.org/2000/svg">
<path fill-rule="evenodd" clip-rule="evenodd" d="M2.82551 6.07576C2.1665 6.73477 2.1665 7.79543 2.1665 9.91675V16.0834C2.1665 18.2047 2.1665 19.2654 2.82551 19.9244C3.48452 20.5834 4.54518 20.5834 6.6665 20.5834H19.3332C21.4545 20.5834 22.5152 20.5834 23.1742 19.9244C23.8332 19.2654 23.8332 18.2047 23.8332 16.0834V9.91675C23.8332 7.79543 23.8332 6.73477 23.1742 6.07576C22.5152 5.41675 21.4545 5.41675 19.3332 5.41675H6.6665C4.54518 5.41675 3.48452 5.41675 2.82551 6.07576ZM5.41649 7.54179C4.79516 7.54179 4.29148 8.04547 4.29148 8.66679C4.29148 9.28811 4.79516 9.79179 5.41649 9.79179H7.58315C8.20447 9.79179 8.70815 9.28811 8.70815 8.66679C8.70815 8.04547 8.20447 7.54179 7.58315 7.54179H5.41649ZM17.2915 17.3334C17.2915 16.7121 17.7952 16.2084 18.4165 16.2084H20.5832C21.2045 16.2084 21.7082 16.7121 21.7082 17.3334C21.7082 17.9547 21.2045 18.4584 20.5832 18.4584H18.4165C17.7952 18.4584 17.2915 17.9547 17.2915 17.3334ZM13.9998 13.0001C13.9998 13.5524 13.5521 14.0001 12.9998 14.0001C12.4476 14.0001 11.9998 13.5524 11.9998 13.0001C11.9998 12.4478 12.4476 12.0001 12.9998 12.0001C13.5521 12.0001 13.9998 12.4478 13.9998 13.0001ZM16.2498 13.0001C16.2498 14.795 14.7948 16.2501 12.9998 16.2501C11.2049 16.2501 9.74984 14.795 9.74984 13.0001C9.74984 11.2052 11.2049 9.75008 12.9998 9.75008C14.7948 9.75008 16.2498 11.2052 16.2498 13.0001Z" fill="white"/>
</svg>
