<svg width="32" height="32" viewBox="0 0 32 32" fill="none" xmlns="http://www.w3.org/2000/svg">
<path fill-rule="evenodd" clip-rule="evenodd" d="M9.33439 8.66671H11.9999C13.1045 8.66671 13.9999 9.56214 13.9999 10.6667C13.9999 11.7713 13.1045 12.6667 11.9999 12.6667H9.33324V15.3334H11.9999C13.1045 15.3334 13.9999 16.2288 13.9999 17.3334C13.9999 18.4379 13.1045 19.3334 11.9999 19.3334H9.33324V22H11.9999C13.1045 22 13.9999 22.8955 13.9999 24C13.9999 25.1046 13.1045 26 11.9999 26H9.38398C9.44792 26.6501 9.59243 27.0877 9.91902 27.4143C10.5048 28 11.4476 28 13.3332 28H22.6666C24.5522 28 25.495 28 26.0808 27.4143C26.6666 26.8285 26.6666 25.8857 26.6666 24V9.33337C26.6666 7.44776 26.6666 6.50495 26.0808 5.91916C25.495 5.33337 24.5522 5.33337 22.6666 5.33337H13.3332C11.4476 5.33337 10.5048 5.33337 9.91902 5.91916C9.40677 6.43142 9.34247 7.21669 9.33439 8.66671ZM21.3332 14.3334C20.7809 14.3334 20.3332 13.8857 20.3332 13.3334V10.6667C20.3332 10.1144 20.7809 9.66671 21.3332 9.66671C21.8855 9.66671 22.3332 10.1144 22.3332 10.6667V13.3334C22.3332 13.8857 21.8855 14.3334 21.3332 14.3334ZM6.6665 9.66671C6.11422 9.66671 5.6665 10.1144 5.6665 10.6667C5.6665 11.219 6.11422 11.6667 6.6665 11.6667H11.9998C12.5521 11.6667 12.9998 11.219 12.9998 10.6667C12.9998 10.1144 12.5521 9.66671 11.9998 9.66671H6.6665ZM6.6665 16.3334C6.11422 16.3334 5.6665 16.7811 5.6665 17.3334C5.6665 17.8857 6.11422 18.3334 6.6665 18.3334H11.9998C12.5521 18.3334 12.9998 17.8857 12.9998 17.3334C12.9998 16.7811 12.5521 16.3334 11.9998 16.3334H6.6665ZM6.6665 23C6.11422 23 5.6665 23.4478 5.6665 24C5.6665 24.5523 6.11422 25 6.6665 25H11.9998C12.5521 25 12.9998 24.5523 12.9998 24C12.9998 23.4478 12.5521 23 11.9998 23H6.6665Z" fill="white"/>
</svg>
