<svg width="32" height="32" viewBox="0 0 32 32" fill="none" xmlns="http://www.w3.org/2000/svg">
<path fill-rule="evenodd" clip-rule="evenodd" d="M14.6668 24C19.8215 24 24.0002 19.8214 24.0002 14.6667C24.0002 9.51205 19.8215 5.33337 14.6668 5.33337C9.51217 5.33337 5.3335 9.51205 5.3335 14.6667C5.3335 19.8214 9.51217 24 14.6668 24ZM14.6668 8.33337C13.8351 8.33337 13.0116 8.49719 12.2432 8.81547C11.4748 9.13375 10.7766 9.60026 10.1885 10.1884C9.60038 10.7765 9.13387 11.4747 8.81559 12.243C8.49731 13.0114 8.3335 13.835 8.3335 14.6667C8.3335 15.219 8.78121 15.6667 9.3335 15.6667C9.88578 15.6667 10.3335 15.219 10.3335 14.6667C10.3335 14.0976 10.4456 13.5342 10.6634 13.0084C10.8811 12.4827 11.2003 12.005 11.6027 11.6026C12.0051 11.2002 12.4828 10.881 13.0085 10.6632C13.5343 10.4455 14.0978 10.3334 14.6668 10.3334C15.2191 10.3334 15.6668 9.88566 15.6668 9.33337C15.6668 8.78109 15.2191 8.33337 14.6668 8.33337Z" fill="#386BED"/>
<path d="M26.6667 26.6667L24 24" stroke="#386BED" stroke-width="2" stroke-linecap="round"/>
</svg>
