<svg width="24" height="24" viewBox="0 0 24 24" fill="none" xmlns="http://www.w3.org/2000/svg">
<path fill-rule="evenodd" clip-rule="evenodd" d="M24 12C24 18.6274 18.6274 24 12 24C5.37258 24 0 18.6274 0 12C0 5.37258 5.37258 0 12 0C18.6274 0 24 5.37258 24 12ZM5.95956 18.0404C5.56904 17.6499 5.56904 17.0168 5.95956 16.6262L10.5858 12L5.95956 7.37377C5.56904 6.98325 5.56904 6.35008 5.95956 5.95956C6.35008 5.56904 6.98325 5.56904 7.37377 5.95956L12 10.5858L16.6262 5.95956C17.0168 5.56904 17.6499 5.56904 18.0404 5.95956C18.431 6.35008 18.431 6.98325 18.0404 7.37377L13.4142 12L18.0404 16.6262C18.431 17.0168 18.431 17.6499 18.0404 18.0404C17.6499 18.431 17.0168 18.431 16.6262 18.0404L12 13.4142L7.37377 18.0404C6.98325 18.431 6.35008 18.431 5.95956 18.0404Z" fill="#D90000"/>
</svg>
