<svg width="32" height="32" viewBox="0 0 32 32" fill="none" xmlns="http://www.w3.org/2000/svg">
<rect width="8" height="8" rx="1.33333" transform="matrix(1 0 0 -1 18.6665 13.3334)" stroke="white" stroke-width="2.66667" stroke-linecap="round"/>
<path d="M13.3335 18.6666H18.6668C19.9239 18.6666 20.5524 18.6666 20.943 19.0572C21.3335 19.4477 21.3335 20.0762 21.3335 21.3333V24C21.3335 25.257 21.3335 25.8856 20.943 26.2761C20.5524 26.6666 19.9239 26.6666 18.6668 26.6666H13.3335V18.6666Z" stroke="white" stroke-width="2.66667" stroke-linecap="round"/>
<path d="M13.3335 13.3333C13.3335 12.0762 13.3335 11.4477 12.943 11.0572C12.5524 10.6666 11.9239 10.6666 10.6668 10.6666H8.00016C6.74308 10.6666 6.11454 10.6666 5.72402 11.0572C5.3335 11.4477 5.3335 12.0762 5.3335 13.3333V18.6666H13.3335V13.3333Z" stroke="white" stroke-width="2.66667" stroke-linecap="round"/>
<path d="M13.3335 26.6666H8.00016C6.74308 26.6666 6.11454 26.6666 5.72402 26.2761C5.3335 25.8856 5.3335 25.257 5.3335 24V18.6666H13.3335V26.6666Z" stroke="white" stroke-width="2.66667" stroke-linecap="round"/>
</svg>
